<?xml version="1.0" encoding="UTF-8"?><svg id="Layer_1" xmlns="http://www.w3.org/2000/svg" viewBox="0 0 120 120.006"><defs><style>.cls-1{fill:#2f0000;fill-rule:evenodd;}</style></defs><path class="cls-1" d="M0,120.006H120V0H0V120.006H0Zm53.999-18.003h-5.006l-12.997-12.987-12.988,12.987h-5.011v-36.007h7.201v23.636l10.797-10.799,10.806,10.799v-23.636h7.196v36.007h0Zm0-47.996h-7.196V30.368l-10.806,10.805-10.797-10.805v23.639h-7.201V18.006h5.011l12.988,12.988,12.997-12.988h5.006V54.007h0Zm47.999,19.19h-23.71l23.71,23.707v5.099h-36v-7.201h23.71l-23.71-23.71v-5.096h36v7.201h0Zm0-50.105l-23.71,23.713h23.71v7.203h-36v-5.096l23.71-23.708h-23.71v-7.197h36v5.086Z"/></svg>