<svg width="180" height="180" viewBox="0 0 180 180" fill="none" xmlns="http://www.w3.org/2000/svg">
<g clip-path="url(#clip0_3132_7)">
<path fill-rule="evenodd" clip-rule="evenodd" d="M0 180H180V0H0V180ZM80.9985 152.997H73.4895L53.994 133.517L34.512 152.997H26.9955V98.9891H37.797V134.441L53.9925 118.244L70.2015 134.441V98.9891H80.9955V152.997H80.9985ZM80.9985 81.0065H70.2045V45.5497L53.9955 61.7564L37.8 45.5497V81.0065H26.9985V27.0077H34.515L53.997 46.4887L73.4925 27.0077H81.0015V81.0065H80.9985ZM152.997 109.79H117.432L152.997 145.349V152.997H98.997V142.196H134.562L98.997 106.633V98.9891H152.997V109.79ZM152.997 34.6363L117.432 70.204H152.997V81.0079H98.997V73.3643L134.562 37.8041H98.997V27.0091H152.997V34.6378V34.6363Z" fill="#2F0000"/>
</g>
<defs>
<clipPath id="clip0_3132_7">
<rect width="180" height="180" fill="white"/>
</clipPath>
</defs>
</svg>
