<svg xmlns="http://www.w3.org/2000/svg">
  <symbol viewBox="0 0 24 24" fill="none" id="icon__vk">
    <g clip-path="url(#clip0_424_51)">
      <path
        d="M22.4707 0H1.53271C0.685908 0 0 0.685908 0 1.53101V22.469C0 23.3141 0.685908 24 1.53271 24H22.469C23.3141 24 24 23.3141 24 22.469V1.53101C24.0017 0.684214 23.3158 0 22.4707 0ZM19.9083 14.6242C20.3469 15.0713 21.2987 15.8216 21.126 16.5854C20.9668 17.2866 19.9201 17.0308 18.904 17.0715C17.7438 17.1206 17.0562 17.146 16.3585 16.5854C16.0299 16.3195 15.8369 16.0045 15.5218 15.6522C15.2356 15.3339 14.8749 14.7631 14.3837 14.7851C13.5014 14.8292 13.7774 16.0587 13.4641 16.897C8.55945 17.6693 6.5898 14.6395 4.85216 11.6994C4.01044 10.2751 2.79444 7.21643 2.79444 7.21643L6.26293 7.20457C6.26293 7.20457 7.37563 9.22843 7.67031 9.75005C7.92097 10.1938 8.19702 10.546 8.48155 10.9423C8.72034 11.2709 9.09802 11.9145 9.51126 11.862C10.1836 11.7756 10.3056 9.16745 9.88893 8.29356C9.72296 7.93959 9.32496 7.81596 8.91341 7.69572C9.05229 6.81843 12.8036 6.63552 13.4099 7.31635C14.2906 8.30541 12.8002 11.0592 14.0061 11.862C15.6997 10.9745 17.146 7.25877 17.146 7.25877L21.2073 7.28417C21.2073 7.28417 20.5722 9.29278 19.9066 10.1836C19.5187 10.7052 18.2316 11.8671 18.2824 12.7291C18.3231 13.4116 19.3697 14.0755 19.9083 14.6242Z"
        fill="#350000" />
    </g>
    <defs>
      <clipPath id="clip0_424_51">
        <rect width="24" height="24" fill="white" />
      </clipPath>
    </defs>
  </symbol>

  <symbol viewBox="0 0 24 24" fill="none" id="icon__youtube">
    <path
      d="M22.98 5.34C22.329 4.182 21.6225 3.969 20.184 3.888C18.747 3.7905 15.1335 3.75 12.003 3.75C8.8665 3.75 5.2515 3.7905 3.816 3.8865C2.3805 3.969 1.6725 4.1805 1.0155 5.34C0.345 6.4965 0 8.4885 0 11.9955C0 11.9985 0 12 0 12C0 12.003 0 12.0045 0 12.0045V12.0075C0 15.4995 0.345 17.5065 1.0155 18.651C1.6725 19.809 2.379 20.019 3.8145 20.1165C5.2515 20.2005 8.8665 20.25 12.003 20.25C15.1335 20.25 18.747 20.2005 20.1855 20.118C21.624 20.0205 22.3305 19.8105 22.9815 18.6525C23.658 17.508 24 15.501 24 12.009C24 12.009 24 12.0045 24 12.0015C24 12.0015 24 11.9985 24 11.997C24 8.4885 23.658 6.4965 22.98 5.34ZM9 16.5V7.5L16.5 12L9 16.5Z"
      fill="#350000" />
  </symbol>

  <symbol viewBox="0 0 48 48" fill="none" id="icon__quality">
    <path
      d="M24 0.75C16.5562 0.75 10.5 6.80625 10.5 14.25C10.5 16.3129 10.9733 18.3482 11.8835 20.1995C12.7937 22.0507 14.1164 23.6684 15.75 24.9281V46.5C15.7499 46.6484 15.7938 46.7935 15.8762 46.917C15.9586 47.0404 16.0758 47.1366 16.2129 47.1935C16.35 47.2503 16.5009 47.2651 16.6465 47.2361C16.792 47.2072 16.9257 47.1356 17.0306 47.0306L24 40.0603L30.9694 47.0306C31.0743 47.1356 31.208 47.2072 31.3535 47.2361C31.4991 47.2651 31.65 47.2503 31.7871 47.1935C31.9242 47.1366 32.0414 47.0404 32.1238 46.917C32.2062 46.7935 32.2501 46.6484 32.25 46.5V24.9281C33.8836 23.6684 35.2063 22.0507 36.1165 20.1995C37.0267 18.3482 37.5 16.3129 37.5 14.25C37.5 6.80625 31.4438 0.75 24 0.75ZM30.75 44.6897L24.5306 38.4694C24.3898 38.3289 24.1989 38.25 24 38.25C23.8011 38.25 23.6102 38.3289 23.4694 38.4694L17.25 44.6897V25.9378C19.3015 27.1249 21.6298 27.75 24 27.75C26.3702 27.75 28.6985 27.1249 30.75 25.9378V44.6897ZM24 26.25C21.6266 26.25 19.3065 25.5462 17.3332 24.2276C15.3598 22.9091 13.8217 21.0349 12.9134 18.8422C12.0052 16.6495 11.7676 14.2367 12.2306 11.9089C12.6936 9.58114 13.8365 7.44295 15.5147 5.76472C17.1929 4.08649 19.3311 2.9436 21.6589 2.48058C23.9867 2.01755 26.3995 2.25519 28.5922 3.16345C30.7849 4.0717 32.6591 5.60977 33.9776 7.58316C35.2962 9.55655 36 11.8766 36 14.25C35.9964 17.4315 34.731 20.4817 32.4813 22.7313C30.2317 24.981 27.1815 26.2464 24 26.25Z"
      fill="#350000" />
    <path
      d="M24 3.75C21.9233 3.75 19.8932 4.36581 18.1665 5.51957C16.4398 6.67332 15.094 8.3132 14.2993 10.2318C13.5045 12.1504 13.2966 14.2616 13.7018 16.2984C14.1069 18.3352 15.1069 20.2062 16.5754 21.6746C18.0438 23.1431 19.9148 24.1431 21.9516 24.5482C23.9884 24.9534 26.0995 24.7455 28.0182 23.9507C29.9368 23.156 31.5767 21.8102 32.7304 20.0835C33.8842 18.3568 34.5 16.3267 34.5 14.25C34.4969 11.4662 33.3897 8.79722 31.4212 6.82875C29.4528 4.86028 26.7838 3.75305 24 3.75ZM24 23.25C22.22 23.25 20.4799 22.7222 18.9999 21.7332C17.5198 20.7443 16.3663 19.3387 15.6851 17.6942C15.0039 16.0496 14.8257 14.24 15.1729 12.4942C15.5202 10.7484 16.3774 9.14471 17.636 7.88604C18.8947 6.62737 20.4984 5.7702 22.2442 5.42293C23.99 5.07567 25.7996 5.2539 27.4441 5.93508C29.0887 6.61627 30.4943 7.76983 31.4832 9.24987C32.4722 10.7299 33 12.47 33 14.25C32.9971 16.6361 32.048 18.9236 30.3608 20.6108C28.6736 22.298 26.3861 23.2471 24 23.25Z"
      fill="#350000" />
    <path
      d="M31.226 11.7525C31.1747 11.6057 31.079 11.4785 30.9522 11.3885C30.8253 11.2985 30.6737 11.2501 30.5182 11.25H26.0725L24.7085 7.30035C24.6575 7.15298 24.5618 7.02518 24.4348 6.93472C24.3077 6.84426 24.1557 6.79565 23.9997 6.79565C23.8438 6.79565 23.6917 6.84426 23.5647 6.93472C23.4377 7.02518 23.342 7.15298 23.291 7.30035L21.9269 11.25H17.4813C17.3256 11.2499 17.1738 11.2981 17.0468 11.3881C16.9198 11.4781 16.824 11.6054 16.7726 11.7523C16.7211 11.8992 16.7167 12.0585 16.7599 12.208C16.8031 12.3576 16.8917 12.49 17.0135 12.5869L20.636 15.4707L19.2579 19.7129C19.2091 19.8635 19.2092 20.0256 19.2582 20.1762C19.3072 20.3267 19.4025 20.4579 19.5306 20.5509C19.6587 20.6439 19.8129 20.694 19.9713 20.694C20.1296 20.694 20.2838 20.644 20.4119 20.551L23.9997 17.9447L27.5875 20.551C27.7156 20.644 27.8699 20.694 28.0282 20.694C28.1865 20.694 28.3407 20.6439 28.4688 20.5509C28.5969 20.4579 28.6923 20.3267 28.7413 20.1762C28.7903 20.0256 28.7904 19.8635 28.7416 19.7129L27.3635 15.4707L30.986 12.5869C31.1077 12.49 31.1962 12.3576 31.2392 12.2081C31.2822 12.0585 31.2776 11.8993 31.226 11.7525ZM26.0228 14.6213C25.9033 14.7164 25.8157 14.8457 25.7717 14.992C25.7276 15.1382 25.7292 15.2944 25.7763 15.4397L26.6022 17.9804L24.4404 16.411C24.3123 16.3178 24.1581 16.2675 23.9997 16.2675C23.8414 16.2675 23.6871 16.3178 23.5591 16.411L21.3972 17.9804L22.2232 15.4397C22.2702 15.2944 22.2718 15.1382 22.2278 14.992C22.1837 14.8457 22.0961 14.7164 21.9766 14.6213L19.6272 12.75H22.4613C22.6173 12.75 22.7694 12.7013 22.8965 12.6107C23.0235 12.5201 23.1191 12.3922 23.17 12.2447L23.9997 9.84192L24.8294 12.2447C24.8803 12.3922 24.9759 12.5201 25.103 12.6107C25.23 12.7013 25.3821 12.75 25.5382 12.75H28.3722L26.0228 14.6213Z"
      fill="#350000" />
    <path
      d="M18.75 27.75C18.5511 27.75 18.3603 27.829 18.2197 27.9697C18.079 28.1103 18 28.3011 18 28.5V32.25C18 32.4489 18.079 32.6397 18.2197 32.7803C18.3603 32.921 18.5511 33 18.75 33C18.9489 33 19.1397 32.921 19.2803 32.7803C19.421 32.6397 19.5 32.4489 19.5 32.25V28.5C19.5 28.3011 19.421 28.1103 19.2803 27.9697C19.1397 27.829 18.9489 27.75 18.75 27.75Z"
      fill="#350000" />
    <path
      d="M18.75 33.75C18.5511 33.75 18.3603 33.829 18.2197 33.9697C18.079 34.1103 18 34.3011 18 34.5V35.25C18 35.4489 18.079 35.6397 18.2197 35.7803C18.3603 35.921 18.5511 36 18.75 36C18.9489 36 19.1397 35.921 19.2803 35.7803C19.421 35.6397 19.5 35.4489 19.5 35.25V34.5C19.5 34.3011 19.421 34.1103 19.2803 33.9697C19.1397 33.829 18.9489 33.75 18.75 33.75Z"
      fill="#350000" />
  </symbol>

  <symbol viewBox="0 0 48 48" fill="none" id="icon__tool">
    <g clip-path="url(#clip0_424_43)">
      <path
        d="M47.3304 6.80692L41.1938 0.670324C40.3 -0.223488 38.8455 -0.223395 37.9517 0.670324L26.3977 12.2243C26.1084 12.5137 26.1084 12.9826 26.3977 13.272C26.687 13.5612 27.156 13.5612 27.4453 13.272L38.9993 1.71807C39.1525 1.56489 39.3561 1.48061 39.5727 1.48061C39.7892 1.48061 39.9928 1.56489 40.146 1.71807L46.2827 7.85467C46.4358 8.00776 46.5202 8.21139 46.5202 8.42804C46.5202 8.6446 46.4358 8.84823 46.2827 9.00132L44.7767 10.5073L40.8309 6.56157C40.5416 6.27235 40.0725 6.27235 39.7832 6.56157C39.4939 6.85098 39.4939 7.31992 39.7832 7.60932L43.729 11.5551L42.0084 13.2757L40.2742 11.5415C39.9849 11.2523 39.5158 11.2523 39.2265 11.5415C38.9372 11.8309 38.9372 12.2998 39.2265 12.5892L40.9607 14.3233L39.2401 16.0439L37.5059 14.3097C37.2166 14.0205 36.7476 14.0205 36.4583 14.3097C36.169 14.5991 36.169 15.0681 36.4583 15.3575L38.1925 17.0916L36.4719 18.8122L32.526 14.8662C32.2368 14.5771 31.7677 14.5769 31.4784 14.8662C31.1891 15.1556 31.1891 15.6246 31.4784 15.914L35.4242 19.8598L33.7036 21.5804L31.9694 19.8462C31.6801 19.557 31.2111 19.557 30.9218 19.8462C30.6325 20.1356 30.6325 20.6046 30.9218 20.894L32.6559 22.6281L31.2003 24.0836L23.917 16.8003L25.2717 15.4455C25.561 15.1561 25.561 14.6872 25.2717 14.3978C24.9823 14.1085 24.5133 14.1085 24.224 14.3978L22.8692 15.7525L9.20347 2.08726C8.25303 1.13682 6.98938 0.613418 5.64528 0.613418C4.30119 0.613512 3.03753 1.13692 2.08719 2.08736C1.13666 3.03779 0.61325 4.30136 0.61325 5.64554C0.61325 6.98964 1.13666 8.25329 2.08709 9.20373L15.7526 22.8692L0.672313 37.9497C-0.2215 38.8436 -0.2215 40.298 0.672313 41.1919L6.80891 47.3286C7.24184 47.7615 7.81756 48 8.42994 48C9.04231 48 9.61803 47.7615 10.051 47.3286L25.1314 32.2481L26.2055 33.3222C26.4948 33.6114 26.9638 33.6114 27.2532 33.3222C27.5425 33.0328 27.5425 32.5639 27.2532 32.2745L25.7706 30.7919C25.7418 30.7464 25.7081 30.703 25.6684 30.6634C25.6288 30.6237 25.5854 30.59 25.54 30.5612L9.48781 14.509L11.4745 12.5224L12.7028 13.7507C12.8474 13.8953 13.037 13.9676 13.2267 13.9676C13.4163 13.9676 13.6059 13.8953 13.7505 13.7507C14.0398 13.4613 14.0398 12.9924 13.7505 12.7029L12.5223 11.4747L14.509 9.48807L22.3445 17.3236C22.3448 17.324 22.3451 17.3243 22.3454 17.3246C22.3458 17.325 22.3461 17.3252 22.3465 17.3256L30.6041 25.5832C30.6245 25.6102 30.6463 25.6366 30.6709 25.6613C30.6956 25.6859 30.7219 25.7077 30.7489 25.7281L41.7428 36.722L39.7561 38.7086L28.664 27.6165C28.6573 27.6093 28.6513 27.6017 28.6443 27.5948L24.221 23.1714C24.2137 23.164 24.2057 23.1577 24.1982 23.1507L16.3848 15.3374C16.0955 15.0482 15.6265 15.0482 15.3372 15.3374C15.0478 15.6268 15.0478 16.0958 15.3372 16.3852L38.7082 39.7562L36.7214 41.7429L29.6812 34.7025C29.3919 34.4133 28.9228 34.4133 28.6335 34.7025C28.3442 34.9919 28.3442 35.4609 28.6335 35.7503L36.1977 43.3144C36.2696 43.3863 36.3586 43.4443 36.4534 43.4811L45.4045 46.9563C45.5457 47.011 45.6928 47.0377 45.8389 47.0377C46.1522 47.0377 46.4599 46.915 46.6895 46.6853C47.0262 46.3484 47.1321 45.844 46.9595 45.4002L43.4806 36.4533C43.4439 36.3588 43.3858 36.2695 43.314 36.1978L32.2479 25.1317L47.3304 10.0491C48.2243 9.15517 48.2243 7.70082 47.3304 6.80692ZM24.084 31.2005L22.6303 32.6539L20.8961 30.9197C20.6068 30.6305 20.1377 30.6305 19.8484 30.9197C19.5591 31.2091 19.5591 31.678 19.8484 31.9674L21.5826 33.7016L19.862 35.4222L15.9162 31.4764C15.6268 31.1872 15.1578 31.1872 14.8685 31.4764C14.5792 31.7658 14.5792 32.2347 14.8685 32.5241L18.8143 36.47L17.0938 38.1906L15.3596 36.4564C15.0703 36.1672 14.6012 36.1672 14.3119 36.4564C14.0226 36.7458 14.0226 37.2147 14.3119 37.5041L16.0461 39.2382L14.3255 40.9588L12.5913 39.2246C12.302 38.9354 11.833 38.9354 11.5437 39.2246C11.2543 39.514 11.2543 39.983 11.5437 40.2724L13.2778 42.0066L11.5573 43.7272L7.61141 39.7813C7.32209 39.4921 6.85306 39.4921 6.56375 39.7813C6.27444 40.0707 6.27444 40.5397 6.56375 40.8291L10.5096 44.7748L9.00359 46.2808C8.85041 46.434 8.64678 46.5184 8.43022 46.5184C8.21366 46.5184 8.01003 46.434 7.85684 46.2808L1.72025 40.1441C1.40412 39.828 1.40412 39.3136 1.72025 38.9975L16.8006 23.917L24.084 31.2005ZM3.13475 8.15607C1.75044 6.77176 1.75044 4.51932 3.13475 3.13501C4.51906 1.75061 6.7715 1.75061 8.15581 3.13501L10.4973 5.47651L5.47625 10.4976L3.13475 8.15607ZM10.9512 10.9503C10.951 10.9505 10.9508 10.9506 10.9507 10.9508C10.9505 10.9509 10.9504 10.9511 10.9502 10.9512L8.44016 13.4613L6.524 11.5451L11.5451 6.52407L13.4612 8.44023L10.9512 10.9503ZM45.3485 45.3451L38.0488 42.5111L42.5113 38.0485L45.3485 45.3451Z"
        fill="#350000" />
    </g>
    <defs>
      <clipPath id="clip0_424_43">
        <rect width="48" height="48" fill="white" />
      </clipPath>
    </defs>
  </symbol>

  <symbol viewBox="0 0 24 24" id="icon__phone">
    <path
      d="M23.9489 18.5956C23.8811 18.391 23.4492 18.0897 22.6535 17.6923C22.438 17.5671 22.1309 17.3969 21.7335 17.1809C21.3357 16.965 20.9747 16.766 20.651 16.5842C20.3267 16.4024 20.0228 16.2262 19.7389 16.056C19.6936 16.0219 19.5515 15.9227 19.3129 15.7575C19.074 15.5929 18.8726 15.4707 18.7075 15.391C18.5427 15.3117 18.3807 15.2719 18.2216 15.2719C17.9944 15.2719 17.7105 15.4339 17.3697 15.7575C17.0289 16.0816 16.7163 16.4336 16.4323 16.8146C16.1483 17.1954 15.8471 17.5474 15.5292 17.8713C15.2109 18.1953 14.9493 18.3572 14.745 18.3572C14.6424 18.3572 14.5145 18.3286 14.3613 18.2722C14.2081 18.2154 14.0915 18.1667 14.0115 18.1275C13.9322 18.0875 13.7962 18.0082 13.6028 17.8885C13.4092 17.7691 13.3015 17.7037 13.2788 17.6923C11.7219 16.8285 10.3868 15.8399 9.27296 14.7266C8.15951 13.6127 7.17067 12.2777 6.30703 10.7208C6.29569 10.6981 6.23019 10.5901 6.11096 10.397C5.99155 10.2037 5.91196 10.0675 5.8722 9.98779C5.83244 9.90832 5.78413 9.79179 5.72741 9.63841C5.67069 9.48504 5.64221 9.35728 5.64221 9.25489C5.64221 9.05047 5.80419 8.78898 6.1281 8.47077C6.45194 8.15274 6.80432 7.85148 7.18488 7.5676C7.56574 7.28372 7.91776 6.97112 8.24173 6.63034C8.56557 6.28939 8.72749 6.00545 8.72749 5.77822C8.72749 5.61924 8.68772 5.45715 8.60826 5.29243C8.52873 5.12736 8.40657 4.92592 8.24173 4.68718C8.07682 4.44855 7.97741 4.30664 7.94326 4.26097C7.77298 3.97708 7.59703 3.67314 7.41499 3.34926C7.23294 3.02544 7.03424 2.66448 6.81823 2.26681C6.6024 1.86932 6.43206 1.56239 6.30691 1.34651C5.9094 0.551225 5.6083 0.119224 5.40369 0.0512837C5.3241 0.0171941 5.20469 0 5.04576 0C4.73875 0 4.33825 0.0567166 3.84395 0.170508C3.34947 0.28412 2.96037 0.403285 2.67623 0.528479C2.10802 0.766987 1.50577 1.46012 0.86931 2.60765C0.28975 3.67559 0 4.73261 0 5.77793C0 6.08449 0.0198819 6.38276 0.0596456 6.67279C0.0994094 6.96252 0.170459 7.28927 0.272853 7.65297C0.375069 8.01656 0.457522 8.28665 0.519854 8.46253C0.582246 8.63853 0.698732 8.95381 0.86925 9.4085C1.03953 9.86307 1.14192 10.1413 1.17602 10.2436C1.57371 11.3573 2.04533 12.3515 2.59073 13.2265C3.48811 14.681 4.71272 16.1841 6.26387 17.7353C7.81507 19.2863 9.31797 20.5108 10.7726 21.4085C11.6476 21.9538 12.6422 22.4253 13.7558 22.8233C13.8581 22.8572 14.1364 22.9593 14.5909 23.1302C15.0454 23.3006 15.3609 23.4171 15.5369 23.4796C15.713 23.5422 15.9831 23.6247 16.3464 23.727C16.7105 23.8294 17.037 23.9005 17.3267 23.9405C17.6167 23.9798 17.915 24 18.2217 24C19.267 24 20.3241 23.7101 21.3923 23.1306C22.5398 22.4944 23.2328 21.8921 23.4714 21.3235C23.5969 21.0397 23.7158 20.6505 23.8294 20.1561C23.9434 19.6618 24 19.2614 24 18.9545C24.0004 18.7949 23.9832 18.6758 23.9489 18.5956Z" />
  </symbol>

  <symbol viewBox="0 0 13 8" fill="none" id="icon__arrow">
    <path
      d="M13 0.680355C13 0.854352 12.9421 1.02835 12.8231 1.16066L6.92606 7.80153C6.69046 8.06616 6.30853 8.06616 6.07294 7.80153L0.176694 1.16066C-0.0588981 0.895133 -0.0588981 0.464671 0.176694 0.199145C0.412287 -0.0663815 0.79422 -0.0663815 1.02981 0.199145L6.4999 6.35972L11.9716 0.199145C12.2072 -0.0654755 12.5899 -0.0654755 12.8247 0.199145C12.9421 0.332361 13 0.506358 13 0.680355Z"
      fill="#959595" />
  </symbol>
</svg>
